<svg xmlns="http://www.w3.org/2000/svg" viewBox="0 0 800 560" role="img">
  <rect width="800" height="560" rx="44" fill="#fff8f1"/>
  <rect x="80" y="100" width="270" height="340" rx="32" fill="#ffffff"/>
  <rect x="450" y="100" width="270" height="340" rx="32" fill="#ffffff"/>
  <rect x="122" y="184" width="186" height="142" rx="22" fill="#f1e6d8" stroke="#1f1f1f" stroke-opacity=".12" stroke-width="8"/>
  <path d="M145 266c26-43 114-48 145-11 21 25-8 60-74 59-65-1-94-19-71-48Z" fill="#c89f74"/>
  <rect x="492" y="160" width="186" height="190" rx="22" fill="#f1e6d8" stroke="#1f1f1f" stroke-opacity=".12" stroke-width="8"/>
  <path d="M512 269c20-80 139-99 171-29 25 55-15 100-95 98-70-2-91-28-76-69Z" fill="#c89f74"/>
  <circle cx="560" cy="247" r="9" fill="#fff8f1"/>
  <circle cx="618" cy="292" r="11" fill="#fff8f1"/>
  <circle cx="585" cy="225" r="7" fill="#fff8f1"/>
  <path d="M370 260h48" stroke="#0f3d2e" stroke-width="16" stroke-linecap="round"/>
  <path d="m404 230 32 32-32 32" fill="none" stroke="#0f3d2e" stroke-width="16" stroke-linecap="round" stroke-linejoin="round"/>
</svg>
