<svg xmlns="http://www.w3.org/2000/svg" viewBox="0 0 520 390" role="img">
  <rect width="520" height="390" rx="36" fill="#fff8f1"/>
  <rect x="48" y="72" width="424" height="240" rx="28" fill="#f1e6d8"/>
  <path d="M168 215c35-62 152-67 197-15 37 43-8 82-95 81-85 0-130-27-102-66Z" fill="#c89f74"/>
  <path d="M208 244c38 24 89 24 126 0" stroke="#fff8f1" stroke-width="12" stroke-linecap="round" opacity=".9"/>
  <path d="M260 134v74" stroke="#0f3d2e" stroke-width="14" stroke-linecap="round"/>
  <path d="m226 184 34 34 34-34" fill="none" stroke="#0f3d2e" stroke-width="14" stroke-linecap="round" stroke-linejoin="round"/>
  <circle cx="92" cy="98" r="30" fill="#e94b2e"/>
  <path d="M80 113h24c9 0 16-6 16-14s-7-14-16-14H82" fill="none" stroke="#fff" stroke-width="11" stroke-linecap="round" stroke-linejoin="round"/>
</svg>
